<svg xmlns:dc="http://purl.org/dc/elements/1.1/" xmlns:cc="http://creativecommons.org/ns#" xmlns:rdf="http://www.w3.org/1999/02/22-rdf-syntax-ns#" xmlns:svg="http://www.w3.org/2000/svg" xmlns="http://www.w3.org/2000/svg" xmlns:sodipodi="http://sodipodi.sourceforge.net/DTD/sodipodi-0.dtd" xmlns:inkscape="http://www.inkscape.org/namespaces/inkscape" viewBox="0 0 36 45.00000125" version="1.1" x="0px" y="0px"><g transform="translate(0,-1016.3622)"><path style="color:#000000;font-style:normal;font-variant:normal;font-weight:normal;font-stretch:normal;font-size:medium;line-height:normal;font-family:sans-serif;text-indent:0;text-align:start;text-decoration:none;text-decoration-line:none;text-decoration-style:solid;text-decoration-color:#000000;letter-spacing:normal;word-spacing:normal;text-transform:none;direction:ltr;block-progression:tb;writing-mode:lr-tb;baseline-shift:baseline;text-anchor:start;white-space:normal;clip-rule:nonzero;display:inline;overflow:visible;visibility:visible;opacity:1;isolation:auto;mix-blend-mode:normal;color-interpolation:sRGB;color-interpolation-filters:linearRGB;solid-color:#000000;solid-opacity:1;fill:#000000;fill-opacity:1;fill-rule:nonzero;stroke:none;stroke-width:0.99999982;stroke-linecap:butt;stroke-linejoin:round;stroke-miterlimit:4;stroke-dasharray:none;stroke-dashoffset:0;stroke-opacity:1;color-rendering:auto;image-rendering:auto;shape-rendering:auto;text-rendering:auto;enable-background:accumulate" d="M 10.003906 0.001953125 C 8.9044965 0.001953125 8.0039062 0.90255313 8.0039062 2.0019531 L 8.0039062 34.001953 C 8.0039062 35.101453 8.9044965 36.001953 10.003906 36.001953 L 25.003906 36.001953 C 26.103316 36.001953 27.003906 35.101453 27.003906 34.001953 L 27.003906 14.994141 C 27.276046 14.993341 27.507526 14.7825 27.503906 14.5 L 27.503906 13.507812 C 27.507906 13.228312 27.282316 13.002153 27.003906 13.001953 L 27.003906 12.990234 C 27.276046 12.989434 27.507526 12.778594 27.503906 12.496094 L 27.503906 11.503906 C 27.507906 11.224406 27.282316 10.998347 27.003906 10.998047 L 27.003906 9.6328125 C 27.278516 9.6228125 27.496528 9.3997 27.492188 9.125 L 27.492188 8.5097656 C 27.496188 8.2350656 27.278516 8.0083531 27.003906 8.0019531 L 27.003906 2.0019531 C 27.003906 0.90245312 26.103306 0.001953125 25.003906 0.001953125 L 10.003906 0.001953125 z M 10.003906 1.0019531 L 25.003906 1.0019531 C 25.566506 1.0019531 26.003906 1.4391531 26.003906 2.0019531 L 26.003906 6.0019531 L 9.0039062 6.0019531 L 9.0039062 2.0019531 C 9.0039062 1.4391531 9.4413063 1.0019531 10.003906 1.0019531 z M 15.503906 3.0019531 C 15.227756 3.0019531 15.003906 3.2258531 15.003906 3.5019531 C 15.003906 3.7781531 15.227756 4.0019531 15.503906 4.0019531 C 15.780046 4.0019531 16.003896 3.7781531 16.003906 3.5019531 C 16.003896 3.2258531 15.780046 3.0019531 15.503906 3.0019531 z M 17.494141 3.0019531 C 16.817991 2.9919531 16.817991 4.0115531 17.494141 4.0019531 L 19.511719 4.0019531 C 20.187869 4.0119531 20.187869 2.9924531 19.511719 3.0019531 L 17.494141 3.0019531 z M 9.0039062 7.0019531 L 26.003906 7.0019531 L 26.003906 11.003906 L 26.003906 11.503906 L 26.003906 12.496094 L 26.003906 12.996094 L 26.003906 13.007812 L 26.003906 13.507812 L 26.003906 14.5 L 26.003906 15 L 26.003906 29.001953 L 9.0039062 29.001953 L 9.0039062 7.0019531 z M 16.990234 11.001953 L 16.990234 14.001953 L 17.990234 14.001953 L 17.990234 11.001953 L 16.990234 11.001953 z M 12.894531 12.699219 L 12.1875 13.40625 L 14.308594 15.527344 L 15.015625 14.820312 L 12.894531 12.699219 z M 22.087891 12.699219 L 19.966797 14.820312 L 20.673828 15.527344 L 22.794922 13.40625 L 22.087891 12.699219 z M 17.490234 15.001953 C 15.839302 15.001953 14.490234 16.351053 14.490234 18.001953 C 14.490234 19.652953 15.839302 21.001953 17.490234 21.001953 C 19.141166 21.001953 20.490234 19.652953 20.490234 18.001953 C 20.490234 16.351053 19.141166 15.001953 17.490234 15.001953 z M 17.490234 16.001953 C 18.600726 16.001953 19.490234 16.891453 19.490234 18.001953 C 19.490234 19.112453 18.600726 20.001953 17.490234 20.001953 C 16.379742 20.001953 15.490234 19.112453 15.490234 18.001953 C 15.490234 16.891453 16.379742 16.001953 17.490234 16.001953 z M 10.490234 17.501953 L 10.490234 18.501953 L 13.490234 18.501953 L 13.490234 17.501953 L 10.490234 17.501953 z M 21.490234 17.501953 L 21.490234 18.501953 L 24.490234 18.501953 L 24.490234 17.501953 L 21.490234 17.501953 z M 14.308594 20.478516 L 12.1875 22.599609 L 12.894531 23.306641 L 15.015625 21.185547 L 14.308594 20.478516 z M 20.673828 20.478516 L 19.966797 21.185547 L 22.087891 23.306641 L 22.794922 22.599609 L 20.673828 20.478516 z M 16.990234 22.001953 L 16.990234 25.001953 L 17.990234 25.001953 L 17.990234 22.001953 L 16.990234 22.001953 z M 9.0039062 30.001953 L 26.003906 30.001953 L 26.003906 34.001953 C 26.003906 34.564853 25.566496 35.001953 25.003906 35.001953 L 10.003906 35.001953 C 9.4413063 35.001953 9.0039062 34.564853 9.0039062 34.001953 L 9.0039062 30.001953 z M 17.564453 31.501953 C 16.982313 31.501953 16.498037 31.983506 16.498047 32.566406 C 16.498047 33.149206 16.982323 33.632812 17.564453 33.632812 C 18.146583 33.632812 18.630859 33.149206 18.630859 32.566406 C 18.630869 31.983506 18.146593 31.501953 17.564453 31.501953 z " transform="translate(0,1016.3622)"/></g><text x="0" y="51.000001" fill="#000000" font-size="5px" font-weight="bold" font-family="'Helvetica Neue', Helvetica, Arial-Unicode, Arial, Sans-serif">Created by Chameleon Design</text><text x="0" y="56.000001" fill="#000000" font-size="5px" font-weight="bold" font-family="'Helvetica Neue', Helvetica, Arial-Unicode, Arial, Sans-serif">from the Noun Project</text></svg>